<svg xmlns="http://www.w3.org/2000/svg">
  <symbol id="fire" viewBox="0 0 1000 1000">
  	<title>fire symbol</title>
  	<path d="M117 853 c-12 -11 -8 -67 8 -121 16 -54 35 -69 35 -29 0 32 33 61 59 52 25 -8 29 -24 34 -140 2 -77 7 -98 32 -144 24 -44 31 -51 33 -33 2 13 9 34 16 47 12 24 14 20 25 -50 10 -61 19 -83 44 -112 17 -19 41 -56 54 -81 l22 -47 1 50 c0 63 32 196 54 229 9 15 25 26 36 26 22 0 50 -35 50 -65 1 -16 4 -15 18 10 12 22 17 57 18 135 1 58 2 110 3 117 1 7 19 18 41 24 43 13 64 4 80 -36 7 -15 9 -10 9 22 1 24 8 61 17 83 29 73 45 70 -339 70 -189 0 -347 -3 -350 -7z"/>
  	<path d="M702 708 c-16 -16 -15 -38 3 -79 l14 -34 1 63 c0 34 -1 62 -3 62 -2 0 -8 -5 -15 -12z"/>
  	<path d="M830 670 c0 -18 4 -29 10 -25 6 3 10 15 10 25 0 10 -4 22 -10 25 -6 4 -10 -7 -10 -25z"/>
  	<path d="M202 653 c0 -15 -4 -45 -8 -65 -4 -23 -2 -38 4 -38 14 0 22 25 22 68 0 45 -17 78 -18 35z"/>
  	<path d="M210 453 c0 -10 5 -25 10 -33 7 -11 10 -7 10 18 0 17 -4 32 -10 32 -5 0 -10 -8 -10 -17z"/>
  	<path d="M572 342 c-3 -89 6 -118 30 -94 21 21 19 86 -4 135 l-23 48 -3 -89z"/>
  </symbol>

  <symbol id="grass" viewBox="0 0 1000 1000">
    <title>grasses symbol</title>
    <path d="M358 643 c39 -2 72 -8 72 -14 0 -15 -61 -172 -74 -188 -8 -10 -6 -12 9 -10 20 4 74 90 75 119 1 40 22 90 38 90 20 0 42 -49 43 -96 0 -16 7 -45 14 -64 l13 -35 1 60 c0 33 -6 77 -13 97 l-13 37 71 4 c39 1 -14 3 -119 3 -104 0 -157 -2 -117 -3z"/>
    <path d="M466 569 c-11 -55 -6 -183 8 -229 14 -43 15 -39 15 108 1 143 -8 192 -23 121z"/>
  </symbol>


  <symbol id="oak" viewBox="0 0 1000 1000">
    <title>oak forest symbol</title>
    <path d="M434 807 c20 -82 27 -132 24 -188 l-3 -64 -152 -7 c-84 -4 -161 -11 -171 -17 -13 -7 -31 -7 -56 0 -27 8 -41 7 -52 -2 -22 -18 -17 -31 25 -70 l39 -37 -21 -20 c-22 -22 -17 -72 7 -72 8 0 15 -16 19 -40 7 -51 47 -90 95 -90 25 0 40 -7 54 -25 11 -14 30 -25 43 -25 12 0 36 -7 51 -15 16 -8 39 -15 51 -15 12 0 25 -4 28 -10 3 -5 30 -10 60 -10 41 0 59 5 72 19 13 14 23 17 33 11 23 -15 86 -12 100 5 7 8 27 15 46 15 21 0 38 7 46 19 7 10 22 20 32 22 11 2 24 17 29 33 5 16 18 37 28 47 11 11 19 28 19 38 0 11 4 21 9 23 5 2 11 21 13 43 2 22 10 47 20 55 26 24 32 56 11 65 -31 12 -136 27 -189 26 -28 -1 -70 6 -94 14 -23 8 -56 15 -73 15 l-30 0 7 102 c4 56 14 117 22 136 8 19 14 36 14 38 0 2 -36 4 -81 4 -79 0 -81 -1 -75 -23z"/>
  </symbol>

<symbol id="rain" viewBox="0 0 1000 1000">
  <title>rain symbol</title>
  <path d="M501 781 c-12 -8 -13 -16 -2 -51 10 -35 15 -40 27 -29 9 8 14 25 12 47 -3 38 -14 47 -37 33z"/>
  <path d="M307 753 c-10 -10 -8 -51 2 -58 13 -7 34 33 27 51 -6 15 -18 18 -29 7z"/>
  <path d="M785 740 c-3 -6 -1 -26 5 -46 15 -43 33 -32 28 16 -3 34 -21 50 -33 30z"/>
  <path d="M631 681 c-10 -7 -11 -18 -4 -47 l9 -39 18 34 c15 28 16 36 4 47 -8 8 -18 10 -27 5z"/>
  <path d="M213 664 c-3 -8 0 -27 7 -42 l12 -27 14 34 c8 18 11 37 8 42 -9 14 -34 10 -41 -7z"/>
  <path d="M395 650 c-3 -5 0 -22 8 -37 14 -26 15 -26 26 -5 6 11 8 28 5 36 -7 18 -30 21 -39 6z"/>
  <path d="M735 630 c-4 -6 -3 -24 0 -42 5 -22 9 -27 16 -17 12 18 11 56 0 64 -5 3 -13 1 -16 -5z"/>
  <path d="M95 518 c-24 -18 -24 -21 -10 -49 13 -24 22 -29 51 -29 32 0 35 -2 27 -22 -12 -35 -7 -96 11 -123 24 -36 72 -58 111 -51 31 6 34 4 40 -23 15 -71 128 -130 224 -117 95 13 189 78 214 149 7 21 14 26 26 21 44 -19 88 3 117 58 28 55 11 115 -46 156 -30 22 -44 24 -238 32 -474 20 -499 20 -527 -2z"/>
</symbol>

  <symbol id="rain" viewBox="0 0 1000 1000">
    <title>chaparral/coast sage scrub symbol</title>
    <path d="M103 693 c0 -25 18 -45 35 -38 11 4 13 0 9 -15 -4 -18 -3 -19 9 -9 23 19 25 6 7 -40 -16 -40 -16 -43 4 -69 21 -29 74 -42 96 -24 8 7 18 6 31 -4 25 -18 50 -18 66 1 10 12 15 12 35 -1 13 -8 31 -14 39 -12 9 2 22 -8 29 -22 9 -17 21 -25 38 -24 13 1 30 -7 37 -17 17 -25 25 -24 58 4 23 20 32 22 55 14 33 -13 55 2 76 51 7 17 20 32 28 32 9 0 15 9 15 23 0 35 16 51 52 52 25 0 34 5 36 20 3 11 10 24 18 28 8 4 14 14 14 21 0 8 7 16 15 20 8 3 15 10 15 16 0 7 -134 10 -408 10 -382 0 -409 -1 -409 -17z"/>
  </symbol>

<symbol id="sun" viewBox="0 0 1000 1000">
  <title>sun symbol</title>
  	<path d="M487 875 c8 -25 16 -45 18 -45 2 0 10 20 18 45 l16 45 -34 0 -34 0 16 -45z"/>
  	<path d="M652 881 c-7 -19 -12 -46 -11 -60 1 -20 4 -16 15 19 17 54 14 90 -4 41z"/>
  	<path d="M330 885 c0 -17 48 -70 56 -62 4 4 -6 22 -24 40 -18 17 -32 27 -32 22z"/>
  	<path d="M785 840 c-9 -27 -15 -59 -13 -70 3 -18 8 -16 51 21 53 46 57 60 22 83 -36 24 -42 21 -60 -34z"/>
  	<path d="M185 854 c-11 -8 -27 -20 -35 -25 -13 -8 -13 -10 2 -19 9 -6 38 -26 64 -46 25 -19 48 -33 51 -30 11 10 -40 136 -55 136 -4 0 -16 -8 -27 -16z"/>
  	<path d="M393 759 c-28 -11 -74 -41 -102 -67 -157 -148 -114 -358 97 -470 104 -55 219 -39 311 44 69 62 95 120 95 214 0 218 -199 357 -401 279z"/>
  	<path d="M872 652 c-24 -13 -41 -26 -38 -29 6 -6 74 26 82 39 11 17 -1 15 -44 -10z"/>
  	<path d="M90 656 c0 -9 57 -36 77 -36 15 0 15 2 -3 14 -23 16 -74 32 -74 22z"/>
  	<path d="M60 465 c0 -25 3 -45 6 -45 3 0 26 14 51 32 43 29 45 32 28 45 -11 7 -34 13 -52 13 -32 0 -33 -1 -33 -45z"/>
  	<path d="M836 502 c-6 -9 96 -62 119 -62 10 0 15 11 15 35 l0 35 -64 0 c-36 0 -67 -4 -70 -8z"/>
  	<path d="M845 350 c7 -12 85 -33 93 -26 6 7 -61 36 -83 36 -9 0 -13 -4 -10 -10z"/>
  	<path d="M153 267 c-31 -21 -42 -37 -25 -37 4 0 23 13 42 30 41 34 30 39 -17 7z"/>
  	<path d="M782 233 c2 -5 15 -30 29 -58 15 -27 30 -65 34 -82 3 -18 8 -33 10 -33 2 0 20 10 40 21 l37 22 -68 68 c-60 61 -93 85 -82 62z"/>
  	<path d="M211 164 c-33 -37 -61 -71 -61 -75 0 -11 46 -23 63 -16 14 5 73 144 65 152 -3 3 -33 -24 -67 -61z"/>
  	<path d="M669 108 c10 -34 23 -64 29 -66 12 -4 5 29 -21 91 -24 56 -28 45 -8 -25z"/>
  	<path d="M462 83 l-21 -48 41 -3 c22 -2 42 -1 44 1 6 6 -29 97 -37 97 -3 0 -16 -21 -27 -47z"/>
  </symbol>

  <symbol id="wind" viewBox="0 0 1000 1000">
    <title>wind symbol</title>
    <path d="M153 672 c10 -11 50 -37 89 -57 87 -46 127 -45 243 8 44 20 100 39 125 43 35 6 40 9 25 15 -30 11 -100 10 -132 -2 -15 -6 -69 -14 -119 -19 -87 -8 -138 -2 -224 25 -25 8 -25 7 -7 -13z"/>
    <path d="M636 603 c-27 -10 -51 -22 -53 -28 -3 -11 156 -20 187 -10 21 7 27 30 11 39 -25 16 -99 15 -145 -1z"/>
    <path d="M380 493 c-100 -18 -185 -21 -220 -9 l-25 8 28 -30 c16 -16 51 -42 79 -57 49 -27 55 -27 147 -21 53 3 111 9 129 12 32 6 33 5 26 -20 -21 -85 79 -146 167 -100 56 29 77 128 38 177 -43 55 -191 71 -369 40z"/>
  </symbol>

  <symbol id="raindrop" viewBox="0 0 1000 1000">
    <path id="XMLID_15_" fill="#FFFFFF" d="M0.7,210.5c0-70.6,0-141.1,0-211.7c70.1,0,140.2,0,210.3,0c0,70.6,0,141.1,0,211.7
      C140.9,210.5,70.8,210.5,0.7,210.5z M135,155.5c-12.5,13.6-25.5,25-45.5,22.4c16.3,6,31.2,2.7,45.4-5.8
      c14.4-8.7,22-21.8,23.9-38.6c0.6,0.2,1.2,0.4,1.7,0.6c-0.7,5-1.3,9.9-2,14.9c1.1-0.8,1.5-1.8,1.7-2.7c2.1-10.1,1.8-20.2-0.5-30.1
      C156,99.9,147.2,86.4,137.9,73c-7.6-10.9-15.1-21.9-21.8-33.4c-4.4-7.6-7.2-16.1-10.7-24.1c-0.8,2.3-1.6,4.8-2.5,7.3
      c-6.1,17-15.6,32-26.4,46.3c-9,12-17.5,24.2-21.7,38.9c-3.5,12.1-5.1,24.2-2.1,36.6c2.3,9.7,6.6,18.4,13.3,25.9
      c0.6,0.7,1.9,0.7,2.8,1.1c-0.2-0.9-0.1-1.9-0.5-2.7c-1.2-2.2-2.6-4.2-3.8-6.3c-6.4-12-8.9-24.7-7.3-38.2
      C59,107.7,65.8,93,74.8,79.1c9.5-14.6,18.8-29.3,24.8-45.7c0.2-0.5,0.6-0.9,0.8-1.4c0.3,0.2,0.7,0.3,1,0.5
      c-6.1,14.9-12.1,29.9-18.2,44.8c-2.9,7.1-6,14.1-8.7,21.2c-1.3,3.5,0.1,4.9,3.9,4.6c1.4-0.1,2.7-0.7,4.1-0.8
      c5.1-0.4,10.2-1,15.3-0.9c7.7,0.3,15.3,1.1,22.9,1.9c2.7,0.3,5.3,1.1,8.2,1.7c-1-5.4-1.7-11.1-3.3-16.6
      c-4.3-14.3-9.1-28.4-13.4-42.7c-1.9-6.4-3-13-4.4-19.5c1.4,1.1,1.8,2.4,2.4,3.6c5.3,10.6,10.2,21.5,15.9,31.9
      c6.9,12.4,14.7,24.4,18.6,38.3c5,18,4.8,35.7-3.3,52.9c-1.1,2.2-2.5,4.3-3.9,6.8C136.6,158,135.9,156.9,135,155.5z"/>
    <path id="XMLID_14_" d="M135,155.5c0.9,1.4,1.5,2.5,2.6,4.1c1.4-2.5,2.8-4.6,3.9-6.8c8.2-17.2,8.4-34.9,3.3-52.9
      c-3.9-13.9-11.7-25.8-18.6-38.3c-5.7-10.4-10.7-21.2-15.9-31.9c-0.6-1.2-1.1-2.5-2.4-3.6c1.4,6.5,2.5,13.1,4.4,19.5
      c4.3,14.3,9.2,28.4,13.4,42.7c1.6,5.4,2.2,11.2,3.3,16.6c-2.9-0.6-5.6-1.4-8.2-1.7c-7.6-0.8-15.3-1.6-22.9-1.9
      c-5.1-0.2-10.2,0.5-15.3,0.9c-1.4,0.1-2.7,0.7-4.1,0.8c-3.8,0.3-5.2-1.1-3.9-4.6c2.7-7.2,5.8-14.1,8.7-21.2
      c6.1-14.9,12.1-29.9,18.2-44.8c-0.3-0.2-0.7-0.3-1-0.5c-0.3,0.5-0.7,0.9-0.8,1.4c-6.1,16.4-15.4,31.1-24.8,45.7
      c-9,13.9-15.8,28.6-17.7,45.2c-1.6,13.5,0.9,26.3,7.3,38.2c1.2,2.2,2.6,4.2,3.8,6.3c0.4,0.8,0.4,1.8,0.5,2.7
      c-1-0.3-2.2-0.4-2.8-1.1c-6.7-7.4-11-16.2-13.3-25.9c-3-12.4-1.4-24.5,2.1-36.6c4.2-14.7,12.7-26.9,21.7-38.9
      c10.8-14.3,20.3-29.3,26.4-46.3c0.9-2.5,1.7-5,2.5-7.3c3.5,8,6.3,16.5,10.7,24.1c6.7,11.5,14.2,22.5,21.8,33.4
      c9.3,13.4,18.2,26.9,21.8,43.1c2.3,10,2.6,20.1,0.5,30.1c-0.2,1-0.6,1.9-1.7,2.7c0.7-5,1.3-9.9,2-14.9c-0.6-0.2-1.2-0.4-1.7-0.6
      c-1.9,16.8-9.5,30-23.9,38.6c-14.1,8.5-29.1,11.8-45.4,5.8C109.5,180.5,122.6,169.1,135,155.5z"/>
    </symbol>
</svg>
