<?xml version="1.0" encoding="utf-8"?>
<!-- Generator: Adobe Illustrator 19.0.0, SVG Export Plug-In . SVG Version: 6.00 Build 0)  -->
<svg version="1.1" id="Layer_1" xmlns="http://www.w3.org/2000/svg" xmlns:xlink="http://www.w3.org/1999/xlink" x="0px" y="0px"
	 viewBox="0 0 204 204" enable-background="new 0 0 204 204" xml:space="preserve">
<g id="XMLID_4_">
	<g id="XMLID_11_">
		<path id="XMLID_15_" fill="#FFFFFF" d="M0.7,210.5c0-70.6,0-141.1,0-211.7c70.1,0,140.2,0,210.3,0c0,70.6,0,141.1,0,211.7
			C140.9,210.5,70.8,210.5,0.7,210.5z M135,155.5c-12.5,13.6-25.5,25-45.5,22.4c16.3,6,31.2,2.7,45.4-5.8
			c14.4-8.7,22-21.8,23.9-38.6c0.6,0.2,1.2,0.4,1.7,0.6c-0.7,5-1.3,9.9-2,14.9c1.1-0.8,1.5-1.8,1.7-2.7c2.1-10.1,1.8-20.2-0.5-30.1
			C156,99.9,147.2,86.4,137.9,73c-7.6-10.9-15.1-21.9-21.8-33.4c-4.4-7.6-7.2-16.1-10.7-24.1c-0.8,2.3-1.6,4.8-2.5,7.3
			c-6.1,17-15.6,32-26.4,46.3c-9,12-17.5,24.2-21.7,38.9c-3.5,12.1-5.1,24.2-2.1,36.6c2.3,9.7,6.6,18.4,13.3,25.9
			c0.6,0.7,1.9,0.7,2.8,1.1c-0.2-0.9-0.1-1.9-0.5-2.7c-1.2-2.2-2.6-4.2-3.8-6.3c-6.4-12-8.9-24.7-7.3-38.2
			C59,107.7,65.8,93,74.8,79.1c9.5-14.6,18.8-29.3,24.8-45.7c0.2-0.5,0.6-0.9,0.8-1.4c0.3,0.2,0.7,0.3,1,0.5
			c-6.1,14.9-12.1,29.9-18.2,44.8c-2.9,7.1-6,14.1-8.7,21.2c-1.3,3.5,0.1,4.9,3.9,4.6c1.4-0.1,2.7-0.7,4.1-0.8
			c5.1-0.4,10.2-1,15.3-0.9c7.7,0.3,15.3,1.1,22.9,1.9c2.7,0.3,5.3,1.1,8.2,1.7c-1-5.4-1.7-11.1-3.3-16.6
			c-4.3-14.3-9.1-28.4-13.4-42.7c-1.9-6.4-3-13-4.4-19.5c1.4,1.1,1.8,2.4,2.4,3.6c5.3,10.6,10.2,21.5,15.9,31.9
			c6.9,12.4,14.7,24.4,18.6,38.3c5,18,4.8,35.7-3.3,52.9c-1.1,2.2-2.5,4.3-3.9,6.8C136.6,158,135.9,156.9,135,155.5z"/>
		<path id="XMLID_14_" d="M135,155.5c0.9,1.4,1.5,2.5,2.6,4.1c1.4-2.5,2.8-4.6,3.9-6.8c8.2-17.2,8.4-34.9,3.3-52.9
			c-3.9-13.9-11.7-25.8-18.6-38.3c-5.7-10.4-10.7-21.2-15.9-31.9c-0.6-1.2-1.1-2.5-2.4-3.6c1.4,6.5,2.5,13.1,4.4,19.5
			c4.3,14.3,9.2,28.4,13.4,42.7c1.6,5.4,2.2,11.2,3.3,16.6c-2.9-0.6-5.6-1.4-8.2-1.7c-7.6-0.8-15.3-1.6-22.9-1.9
			c-5.1-0.2-10.2,0.5-15.3,0.9c-1.4,0.1-2.7,0.7-4.1,0.8c-3.8,0.3-5.2-1.1-3.9-4.6c2.7-7.2,5.8-14.1,8.7-21.2
			c6.1-14.9,12.1-29.9,18.2-44.8c-0.3-0.2-0.7-0.3-1-0.5c-0.3,0.5-0.7,0.9-0.8,1.4c-6.1,16.4-15.4,31.1-24.8,45.7
			c-9,13.9-15.8,28.6-17.7,45.2c-1.6,13.5,0.9,26.3,7.3,38.2c1.2,2.2,2.6,4.2,3.8,6.3c0.4,0.8,0.4,1.8,0.5,2.7
			c-1-0.3-2.2-0.4-2.8-1.1c-6.7-7.4-11-16.2-13.3-25.9c-3-12.4-1.4-24.5,2.1-36.6c4.2-14.7,12.7-26.9,21.7-38.9
			c10.8-14.3,20.3-29.3,26.4-46.3c0.9-2.5,1.7-5,2.5-7.3c3.5,8,6.3,16.5,10.7,24.1c6.7,11.5,14.2,22.5,21.8,33.4
			c9.3,13.4,18.2,26.9,21.8,43.1c2.3,10,2.6,20.1,0.5,30.1c-0.2,1-0.6,1.9-1.7,2.7c0.7-5,1.3-9.9,2-14.9c-0.6-0.2-1.2-0.4-1.7-0.6
			c-1.9,16.8-9.5,30-23.9,38.6c-14.1,8.5-29.1,11.8-45.4,5.8C109.5,180.5,122.6,169.1,135,155.5z"/>
	</g>
</g>
</svg>
